<?xml version="1.0" encoding="UTF-8" standalone="no"?>
<svg xmlns:rdf="http://www.w3.org/1999/02/22-rdf-syntax-ns#" xmlns="http://www.w3.org/2000/svg" xml:space="preserve" height="183.49" viewBox="0 0 237.00015 183.48633" width="237" version="1.1" xmlns:cc="http://creativecommons.org/ns#" xmlns:dc="http://purl.org/dc/elements/1.1/"><g transform="matrix(1.25 0 0 -1.25 -266.23 526.22)"><g transform="translate(1.0676 1.0676)"><path d="m256.53 416.93c-2.262-1.769-5.351-6.691-9.18-14.63-2.092-4.335-5.87-12.163-5.87-20.471 0-5.52 1.669-11.252 6.608-16.312 1.751-1.794 3.595-3.305 5.499-4.519-0.032-0.341-0.064-0.694-0.101-1.1l-0.201-2.237s2.965-1.275 3.818-1.642c-0.011-1.373-0.036-4.399-0.055-6.838-0.209-0.048-0.55-0.126-0.55-0.126l-0.324-4.485c-0.096-1.212-0.683-4.883-2.21-7.117-1.134-1.66-4.414-3.285-6.274-3.86l-7.53-2.33 1.872-3.344c0.25-0.448 1.56-2.746 2.728-3.986l0.131-0.141c1.27-1.361 2.91-2.822 6.381-3.371-0.132-1.113-0.2-2.286-0.2-3.512 0-4.45 0.912-9.179 2.501-12.972 2.752-6.566 8.851-9.873 9.537-10.229 0 0 2.168-1.122 2.837-1.469 1.18-1.814 1.978-2.629 2.683-3.342l0.467-0.478 0.111-0.101c3.614-3.166 8.141-3.556 8.646-3.59 0 0 0.734-0.049 1.388-0.094 2.536-2.128 5.544-3.543 7.867-4.631l4-1.874s0.046 1.126 0.092 2.25c1.29-0.829 2.831-1.493 4.638-1.757 1.527-0.224 7.671-0.634 10.129-0.643 0.538-0.026 4.704-0.189 10.364 0.643 2.113 0.309 3.827 1.206 5.183 2.356 0.303-0.882 0.81-2.35 0.81-2.35l2.936 1.375c2.733 1.279 5.462 2.7 7.716 4.615 0.763 0.054 1.55 0.111 1.55 0.111 0.483 0.034 4.824 0.427 8.434 3.589l0.087 0.077 0.493 0.504c0.706 0.715 1.506 1.532 2.681 3.34 0.669 0.346 2.836 1.469 2.836 1.469 0.686 0.355 6.785 3.66 9.538 10.229 1.589 3.794 2.5 8.522 2.5 12.972 0 1.238-0.07 2.422-0.204 3.544 2.537 0.467 4.738 1.613 6.423 3.383 1.131 1.187 2.532 3.582 2.802 4.05l1.938 3.364-7.577 2.343c-1.859 0.575-5.139 2.198-6.273 3.859-1.528 2.236-2.115 5.907-2.212 7.134l-0.16 2.208-0.163 2.261s-0.34 0.078-0.55 0.126c-0.019 2.439-0.044 5.465-0.054 6.838 0.853 0.367 3.817 1.642 3.817 1.642l-0.201 2.237c-0.036 0.406-0.069 0.759-0.1 1.1 1.904 1.214 3.748 2.726 5.498 4.52 4.94 5.059 6.608 10.791 6.608 16.311 0 8.308-3.777 16.136-5.869 20.471-3.831 7.939-6.918 12.862-9.181 14.63-2.403 1.877-5.433 2.164-7.91 0.748-3.928-2.247-4.726-7.446-5.005-12.731-0.066-1.247-0.098-2.605-0.098-4.03 0-3.058 0.149-6.431 0.437-9.711 0.032-0.353 0.047-0.688 0.047-1.003 0-0.587-0.066-1.084-0.169-1.518-1.837 0.644-3.409 0.352-4.471-0.253-0.247-0.102-0.49-0.202-0.73-0.298-1.97 2.412-3.835 4.631-5.488 6.2-9.219 8.746-19.483 14.398-26.151 14.398-6.699 0-16.964-5.652-26.182-14.398-1.653-1.569-3.518-3.788-5.488-6.2-0.216 0.086-0.434 0.175-0.655 0.267-1.008 0.59-2.612 0.969-4.547 0.289-0.103 0.433-0.168 0.929-0.168 1.514 0 0.315 0.015 0.649 0.046 1.001 0.289 3.281 0.438 6.656 0.438 9.715 0 1.424-0.033 2.78-0.098 4.027-0.279 5.285-1.079 10.484-5.006 12.731-2.477 1.416-5.508 1.129-7.91-0.748" fill="#006a4d"/><path d="m305.93 281.16c-2.266 0-8.364 0.403-9.797 0.614-3.926 0.572-6.182 3.611-6.797 4.899-0.067 0.125-0.283 0.635-0.283 0.635-0.002 0-0.041-0.073-0.317-0.902-0.438-1.312-0.523-3.495-0.523-3.495-4.513 2.113-9.058 4.466-10.658 8.857l-0.422 1.652 0.792-5.517s-3.949 0.266-6.92 2.87c-0.877 0.917-1.585 1.476-2.963 3.671-0.175 0.278-0.173 0.282-0.436 0.418-1.791 0.928-3.287 1.704-3.287 1.704-0.235 0.121-5.772 3.041-8.147 8.709-1.472 3.512-2.259 7.812-2.259 11.761 0 2.107 0.225 4.114 0.688 5.847 0.055 0.203 0.096 0.369 0.145 0.558-0.567-0.045-1.157-0.064-1.776-0.024-4.05 0.264-5.234 1.739-6.205 2.77-0.971 1.032-2.288 3.385-2.288 3.385l3.943 1.22c1.555 0.481 5.996 2.322 7.844 5.027 2.341 3.424 2.739 8.598 2.743 8.65l0.161 2.224 0.701 0.162 0.085 10.447 1.098 0.402c-2.491 1.071-4.737 2.039-4.737 2.039s0.275 3.063 0.319 3.04c-1.755 0.923-4.086 2.475-6.579 5.028-10.856 11.119-3.641 26.07-0.174 33.254 3.522 7.303 6.476 12.117 8.318 13.556 1.474 1.153 3.225 1.344 4.683 0.51 2.156-1.233 3.166-4.195 3.484-10.223 0.199-3.784 0.078-8.631-0.332-13.301-0.348-3.954 0.928-5.772 2.086-6.604-0.047 0.034 0.141-0.133 0.248-0.048 2.581 2.037 3.952 0.831 3.952 0.831s2.866-1.197 2.959-1.084c2.352 2.896 4.652 5.733 6.524 7.509 8.567 8.13 18.27 13.592 24.145 13.592h0.03c5.875 0 15.577-5.462 24.145-13.592 1.872-1.776 4.172-4.613 6.523-7.509 0.093-0.113 2.96 1.084 2.96 1.084s1.371 1.206 3.951-0.831c0.109-0.085 0.296 0.082 0.249 0.048 1.158 0.832 2.434 2.65 2.085 6.604-0.41 4.67-0.53 9.517-0.331 13.301 0.317 6.028 1.327 8.99 3.484 10.223 1.458 0.834 3.208 0.643 4.684-0.51 1.841-1.439 4.794-6.253 8.317-13.556 3.467-7.184 10.682-22.135-0.174-33.254-2.492-2.553-4.824-4.105-6.579-5.028 0.044 0.023 0.319-3.04 0.319-3.04s-2.246-0.968-4.738-2.039l1.099-0.402 0.085-10.447 0.7-0.162 0.162-2.224c0.004-0.052 0.402-5.226 2.743-8.65 1.848-2.705 6.288-4.546 7.844-5.027l3.943-1.22s-1.432-2.486-2.368-3.47c-0.914-0.958-2.772-2.466-6.125-2.685-0.619-0.04-1.209-0.021-1.777 0.024 0.05-0.189 0.091-0.355 0.146-0.558 0.463-1.733 0.687-3.74 0.687-5.847 0-3.949-0.787-8.249-2.258-11.761-2.375-5.668-7.912-8.588-8.146-8.709 0 0-1.498-0.776-3.288-1.704-0.263-0.136-0.261-0.14-0.437-0.418-1.376-2.195-2.086-2.754-2.962-3.671-2.97-2.604-6.719-2.87-6.719-2.87l0.591 5.517-0.421-1.652c-1.601-4.391-5.945-6.744-10.458-8.857 0 0-0.738 2.143-1.316 3.395-0.277 0.602-0.468 1.005-0.47 1.004 0 0-0.235-0.45-0.275-0.566-0.448-1.203-2.133-4.398-6.06-4.97-5.72-0.842-9.863-0.614-9.863-0.614"/><path d="m116.18 20.061c-11.265 0-43.661 23.256-48.186 53.205 0 0 1.0671-0.45039 3.1934-1.1191l0.13867-0.06055c1.1588-4.1088 7.1898-23.546 20.746-35.428 15.235-13.354 24.219-14.055 24.219-14.055v42.816c31.928 0 48.756 7.5898 48.756 7.5898-4.655-29.852-37.127-52.949-48.867-52.949zm0.0918 48.209c-17.513 0.035-35.015 2.872-51.848 8.548-0.0525 2.9925-0.05273 5.8497-0.05273 8.8984 33.85-11.862 70.014-11.796 103.87 0.06445-0.0263-3.1312-0.0254-6.1598-0.0254-9.2461-16.889-5.5344-34.419-8.3011-51.936-8.2656z" transform="matrix(.8 0 0 -.8 212.99 418.57)" fill="#aaaaac"/><path d="m87.854 81.125 2.002 4.8906-0.61914 1.6152s7.9193 0.47781 12.154 2.4453c4.2388 1.9738 6.8789 4.4336 6.8789 4.4336l3.4199-2.2773s-3.9297-3.8555-8.4922-6.2617c-4.586-2.418-15.346-4.846-15.346-4.846zm56.977 0.08594s-10.762 2.4275-15.346 4.8438c-4.5625 2.4075-8.4922 6.2617-8.4922 6.2617l3.4199 2.2793s2.6402-2.4598 6.8789-4.4336c4.235-1.9662 12.156-2.4453 12.156-2.4453l-0.61915-1.6172 2.002-4.8887zm6.3633 5.5566s6.1427 3.2461 7.6777 5.7461c1.5362 2.4975 1.5371 5.4922 1.5371 5.4922l3.582-1.998s-0.76718 1.2465 1.7891 6.9902c2.5625 5.7475 6.1465 7.9902 6.1465 7.9902s-3.5838 0.25406-7.4238-1.9922c-3.8412-2.2475-6.9102-6.9941-6.9102-6.9941s-0.76969 4.494 3.0703 9.4902c3.8412 4.9938 9.4746 7.4941 9.4746 7.4941l-11.01-2.9961s5.1186 3.2431 9.2148 12.734c4.0925 9.4912-1.7871 19.229-1.7871 19.229s6.3859-2.9491 8.4434-8.9941c2.085-6.1162 3.323-10.33 1.793-19.475-0.98-5.8613-1.5352-6.9922-1.5352-6.9922s3.072 1.7486 6.9082 1.4961c3.8425-0.2475 4.8672-1.7461 4.8672-1.7461s-8.1941-2.4959-11.775-7.7422c-3.5875-5.2462-4.5371-12.871-4.5371-12.871l-19.52-4.861zm-70.031 0.07617-19.969 4.9941s-0.50875 7.4933-4.0938 12.738c-3.5838 5.245-11.777 7.7422-11.777 7.7422s1.0252 1.4948 4.8652 1.7461c3.84 0.24625 6.9121-1.498 6.9121-1.498s-0.000859 1.2472-1.5371 6.9922c-1.535 5.7412-0.55078 13.887 1.793 19.482 2.4688 5.8912 8.4453 8.9883 8.4453 8.9883s-5.8873-9.741-1.791-19.229c4.0962-9.4912 9.2188-12.736 9.2188-12.736l-11.01 2.9961s5.6332-2.4991 9.4707-7.4941c3.8425-4.9962 3.0742-9.4902 3.0742-9.4902s-3.0727 4.7479-6.9102 6.9941c-3.8425 2.2475-7.4238 1.9961-7.4238 1.9961s3.5813-2.2465 6.1426-7.9902c2.56-5.7425 1.791-6.9941 1.791-6.9941l3.584 1.998s-0.0011-2.9952 1.5352-5.4902c1.535-2.5012 7.6797-5.7461 7.6797-5.7461z" transform="matrix(.8 0 0 -.8 212.99 418.57)" fill="#d4af7b"/><path d="m116.25 82.693c-7.2188-0.04875-11.279 0.49219-11.279 0.49219l8.3008 4.6934-1.668-3.752 3.1211 1.709 1.5879-2.709 1.3516 2.6289 3.1973-1.7031-1.4238 3.8672 8.8711-4.7441s-5.0873-0.43742-12.059-0.48242zm-26.99 7.8867-1.6973 0.01367-0.83398 3.0176-2.3828-0.33789c-2.3838-0.33-6.8605-0.12133-6.6367 6.1387 0.34 9.615 10.688 14.105 10.688 14.105s-2.5027 0.78734-5.0039-0.22266c-1.7938-0.72001-2.8252-1.8262-3.2812-2.4062 0.59462 0.80668 2.0462 2.8787 2.7012 4.7695 1.4525 4.19 1.1191 5.4609 1.1191 5.4609l5.9531 0.83008 12.766-5.7695s-1.4366-3.6502 1.4609-6.1914c1.895-1.6638 4.4394-1.1289 4.4394-1.1289l2.002-9.084s-3.1697 2.1617-9.2734 3.0742c-4.2912 0.64-7.6074-1.1621-7.6074-1.1621s4.4124 0.18695 8.7012-1.373c4.2912-1.57 4.291-3.166 4.291-3.166l-13.33-6.079s-0.62883-0.32-0.98633 2.8125c-0.35875 3.1313 1.6777 5.3125 1.6777 5.3125s-2.4731-1.328-3.3594-2.9043c-1.4162-2.53-1.4043-5.7109-1.4043-5.7109zm-9.1484 20.309c-0.15658-0.21242-0.29297-0.39258-0.29297-0.39258s0.11244 0.16299 0.29297 0.39258zm63.438-20.195s0.0152 3.1841-1.4024 5.7129c-0.88625 1.5762-3.3613 2.9043-3.3613 2.9043s2.0377-2.1812 1.6777-5.3125c-0.3575-3.1325-0.98633-2.8125-0.98633-2.8125l-13.334 6.0781s0.002 1.5992 4.2949 3.168c4.2875 1.5612 8.6992 1.3711 8.6992 1.3711s-3.3149 1.8021-7.6074 1.1621c-6.1025-0.91375-9.2715-3.0742-9.2715-3.0742l2 9.0859s2.5464-0.5336 4.4414 1.1289c2.8962 2.5412 1.4609 6.1914 1.4609 6.1914l12.764 5.7676 5.9551-0.82813s-0.33531-1.2722 1.1172-5.4609c0.65008-1.8738 2.0865-3.9345 2.6914-4.7578-0.46048 0.58324-1.4873 1.6772-3.2695 2.3926-2.5012 1.01-5.0059 0.22266-5.0059 0.22266s10.349-4.4905 10.689-14.105c0.22375-6.26-4.2549-6.4667-6.6387-6.1367l-2.3828 0.33594-0.83203-3.0176-1.6992-0.01563zm9.1387 20.324c0.18641-0.23611 0.30273-0.40625 0.30273-0.40625s-0.13647 0.17997-0.30273 0.40625zm-36.381-20.014-4.3672 2.7363s-0.12539 0.19852 0.44336 3.5723c0.56875 3.3712 1.4473 3.3516 1.4473 3.3516s-2.3336 1.3861-2.6211 5.5898c-0.31625 4.6438 1.7109 6.9766 1.7109 6.9766l-1.1387 1.1621s-3.254-4.6952-5.9277-1.3965c-2.0725 2.5525 1.3652 5.4707 1.3652 5.4707l3.6484-1.4004s2.4829 3.3887 5.4316 3.3887 5.6308-3.3887 5.6308-3.3887l3.6484 1.4004s3.4377-2.9182 1.3652-5.4707c-2.6738-3.2988-5.9297 1.3965-5.9297 1.3965l-1.1348-1.1621s2.024-2.3328 1.709-6.9766c-0.28625-4.2038-2.6211-5.5898-2.6211-5.5898s0.87852 0.0197 1.4473-3.3516c0.56875-3.3738 0.44336-3.5723 0.44336-3.5723l-4.5508-2.7363z" transform="matrix(.8 0 0 -.8 212.99 418.57)" fill="#ead1b3"/><path d="m296.8 341.56s-2.495-2.724-5.604-1.673c-4.748 1.604-3.595 5.546-3.595 5.546l0.094 0.3 9.105-4.173" fill="#fff"/><path d="m315.47 341.5s2.494-2.724 5.604-1.673c4.747 1.604 3.595 5.546 3.595 5.546l-0.095 0.266-9.104-4.139" fill="#fff"/><path d="m384.82 325.76c0.776 0.077 1.373-0.116 1.937-0.627 1.874-1.697 2.539-5.979 2.539-9.13 0-2.562-0.565-5.233-1.589-7.52-1.064-2.272-1.979-2.347-3.359-2.198-0.217 0.024-0.441 0.063-0.683 0.121v19.146c0.417 0.095 0.806 0.173 1.155 0.208m-12.018-1.351c-0.006 0.368-0.009 0.712-0.009 1.035 0 1.3 0.058 2.245 0.255 3.019 0.075-1.068 0.115-3.238 0.115-6.485v-14.65l0.002-0.623c0.001-0.15 0.002-0.315 0.002-0.49 0-0.64-0.014-1.414-0.095-2.075-0.086 6.475-0.27 20.269-0.27 20.269m-29.537-28.586c0.723-0.016 1.159-0.081 1.267-0.272l0.306-0.539h-0.022s-0.282-0.128-0.317-0.144c-0.059-0.007-0.18-0.018-0.403-0.018h-0.831v0.973zm-28.581-2.741 2.201 1.596c0.703 0.488 1.177 0.693 1.81 0.76v-10.987l0.009-1.052c0-0.93-0.077-1.311-0.193-1.505-0.906 0.922-1.086 1.416-1.585 2.787l-0.186 0.507s-1.284 3.554-2.686 7.436c0.222 0.161 0.63 0.458 0.63 0.458m-4.181 9.37s-0.062 0.171-0.119 0.329c0.259 0 0.635-0.001 0.635-0.001 1.264-0.002 2.538-0.023 3.808-0.036-0.015-0.06-1.412-5.663-1.809-7.253-1.334 3.692-2.515 6.961-2.515 6.961m-13.275-9.344s1.029 4.641 1.526 6.881v-0.099l0.96-0.633c0.114-0.075 0.185-0.134 0.23-0.175-0.062-0.313-0.284-0.973-0.366-1.213-0.003-0.011-0.151-0.463-0.2-0.611l-4.402-12.928c-0.385-1.107-0.639-1.704-1.073-2.249-0.229 0.483-0.275 1.145-0.275 2.435v10.97c0.088-0.022 0.124-0.042 0.128-0.045l0.02-0.048 2.621-6.031 0.831 3.746zm-24.044 3.172c1.001 0 2.152-0.407 3.33-1.175 0 0 0.596-0.389 1.004-0.655-0.007-0.027-0.086-0.342-0.102-0.409-0.974 0.598-1.969 1.058-2.945 1.491l-0.165 0.074 0.113-0.057-0.504 0.225c-0.206 0.087-0.681 0.289-1.032 0.481 0.099 0.014 0.201 0.025 0.301 0.025m61.554 10.406c0 0.451 0.287 1.442 0.425 1.918 0 0.001 0.132 0.451 0.264 0.907 0.507-0.021 2.201-0.09 3.066-0.125 0.267-0.894 0.676-2.265 0.676-2.265l0.017-0.052c0.156-0.485 0.156-0.485 0.161-0.792v-0.031c0-0.073-0.003-0.108-0.007-0.128-0.037-0.04-0.126-0.117-0.353-0.278l-0.913-0.649s0.022-1.67 0.025-1.917h-2.246l-0.021 1.067-0.027 1s-0.57 0.547-0.6 0.576c-0.438 0.443-0.464 0.582-0.467 0.769m-25.48 15.278 0.007 0.897c0 0.014-0.003 1.475-0.006 2.934 0.03-0.021 0.085-0.06 0.085-0.06 0.494-0.346 0.952-0.945 0.96-2.972 0-0.001-0.053-6.778-0.082-10.491-0.51 0.006-1.724 0.021-1.745 0.021-0.002 0.369-0.01 1.783-0.01 1.783 0 0.003-0.015 6.292-0.016 6.65 0.367-0.002 0.797-0.004 0.797-0.004l0.01 1.242zm-5.562-8.771c0.243-0.002 0.412-0.009 0.52-0.019 0.057-0.179 0.397-1.238 0.397-1.238s3.234-0.011 3.577-0.012c-0.041-0.054-0.372-0.497-0.372-0.497-0.576-0.762-1.34-1.032-2.911-1.028-0.361 0-0.781 0.014-1.204 0.06-0.002 0.894-0.004 1.711-0.007 2.734m-0.02 9.096c1.058-0.025 1.327-0.145 1.465-0.41 0 0 0.345-0.659 0.44-0.84-0.076-0.036-0.198-0.095-0.232-0.111-0.059-0.007-0.166-0.014-0.357-0.014l0.024-0.023c-0.091 0.009-0.175 0.023-0.28 0.024 0 0-0.899 0.001-1.057 0.002-0.001 0.598-0.002 0.771-0.003 1.372m-10.142 0.567 0.03-13.095c0-2.12-0.506-2.756-0.947-3.073l-0.89-0.639v-2.775h-3.624c0.819 2.955 3.791 13.67 5.431 19.582m-17.956-12.236s0.161 0.701 0.272 1.184c0.567-1.712 0.961-2.9 0.961-2.9 0.732-2.158 1.395-3.714 3.496-5.33-0.243 0.039-0.494 0.078-0.494 0.078s-0.314-1.255-0.343-1.373c-0.219 0.086-1.011 0.395-1.011 0.395-1.362 0.532-2.906 0.885-4.471 1.035 0.314 1.363 1.59 6.911 1.59 6.911m-3.366 11.842s0.001 0.177 0.001 0.321c0.802-2.421 2.402-7.252 3.487-10.527-0.371-0.03-3.775-0.3-3.775-0.3l-0.581-0.812c-0.865-1.224-2.839-1.452-3.647-1.493-0.362-0.019-0.753-0.023-1.138-0.005-0.001 1.048-0.003 2.259-0.005 3.424 0.101-0.006 0.18-0.013 0.237-0.021 0.057-0.189 0.4-1.334 0.4-1.334l3.875 0.023 0.009 2.12-0.012 7.355c0.253-0.014 1.145-0.063 1.145-0.063l0.004 1.312zm-5.672 0.346s-0.001 0.186-0.001 0.255c1.165-0.087 1.358-0.243 1.517-0.574l0.546-1.141s2.101-0.115 2.227-0.122c-0.306 0.008-2.003 0.053-2.003 0.053l-0.53 0.015s-0.315-0.157-0.341-0.17c-0.061-0.005-0.166-0.009-0.328-0.005-0.003 0-0.534 0.01-1.085 0.02-0.001 0.815-0.002 1.669-0.002 1.669m-28.533 0.277s0.547 2.79 1.06 5.405c0.085-0.471 0.104-1.052 0.104-1.825 0-0.13-0.002-1.157-0.002-1.157 0-0.006 0.041-8.739 0.064-13.745-0.193-0.166-2.098-1.795-2.098-1.795-2.427-2.075-4.705-3.175-6.77-3.268-1.203-0.057-2.166 0.284-2.946 1.04-1.596 1.546-2.473 4.828-2.407 9.002 0.06 4.092 0.869 7.068 2.277 8.38 0.7 0.651 1.569 0.924 2.734 0.857 1.822-0.107 3.167-1.032 4.744-2.489l2.81-2.594 0.43 2.189zm-20.291 8.008-0.019-0.019-0.045-0.049c-2.946-3.317-4.774-9.136-4.659-14.822 0.116-5.926 1.895-11.129 5.012-14.652 3.675-4.284 7.894-4.552 11.158-4.305 2.767 0.206 5.75 0.894 8.182 1.887 0 0 0.5 0.204 0.564 0.23 0.002-0.334 0.004-0.67 0.004-0.67l2.375 0.299c4.734 0.57 9.554 1.076 14.32 1.503l1.498 0.135 0.023 0.09c0.061 0.005 1.183 0.102 1.183 0.102 2.55 0.22 5.124 0.416 7.703 0.594-1.722-1.49-2.741-3.687-2.741-6.013 0-5.537 4.327-7.558 7.19-8.895 0.757-0.354 2.288-1.073 2.507-1.454-0.169-0.093-0.589-0.216-1.211-0.216-1.732 0-3.875 0.816-5.331 2.031l-4.84 4.037 2.689-11.917 1.053-0.414c2.219-0.872 4.564-1.314 6.97-1.314 2.284 0 4.956 0.249 7.461 2.103 2.205 1.65 3.417 4.122 3.417 6.966 0 2.562-0.978 4.624-3.078 6.49l-0.009 0.006c0.078 0.057 0.427 0.31 0.433 0.314 0.076-0.05 0.294-0.191 0.294-0.191v0.404c0.515 0.374 1.826 1.325 1.826 1.325 0.703 0.488 1.177 0.693 1.809 0.76v-10.987l0.009-1.051c0-1.344-0.159-1.553-0.367-1.687l-0.982-0.63v-3.401h21.359v3.228l-0.871 0.733c-0.052 0.044-0.172 0.144-0.263 0.227 0.065 0.397 0.333 1.176 0.429 1.456 0 0 0.139 0.399 0.28 0.803h3.26c0.251-0.751 0.564-1.685 0.564-1.685 0.008-0.025 0.142-0.403 0.143-0.405l-0.001-0.018c0-0.019 0.001-0.05 0.001-0.076-0.06-0.049-0.161-0.124-0.35-0.249l-0.956-0.633v-3.381h24.564v3.154l-0.668 0.632c-0.648 0.612-0.735 1.167-0.735 3.048v10.969c0.087-0.021 0.123-0.04 0.127-0.043l-0.001-0.001 0.02-0.046 2.62-6.039s1.158 5.219 1.454 6.555v-11.492l0.005-0.588c0.003-0.162 0.004-0.312 0.004-0.45 0-1.139-0.087-1.488-0.368-1.668l-0.981-0.631v-3.4h17.92l2.39 9.165h-3.941l-0.641-0.788c-0.485-0.597-1.181-0.994-3-0.994-0.362 0-0.786 0.012-1.213 0.054v2.237c0.033-0.002 0.066-0.004 0.092-0.006 0.052-0.153 0.395-1.147 0.395-1.147h3.819v8.263h1.054v6.81c5.059-0.389 9.862-0.807 9.939-0.814l1.364-0.12-0.016 2.367-0.01 0.839-0.45 0.585c-0.966 1.199-1.175 2.796-1.206 4.991l-0.005 0.335s-0.019 1.334-0.036 2.435c1.17-1.94 2.339-3.881 2.339-3.881l-0.014 0.05c0.102-0.2 0.278-0.504 0.597-1.055 1.279-2.222 2.205-3.829 4.667-5.636l-0.011 0.022c0.119-0.101 0.257-0.207 0.42-0.329 1.133-0.851 2.685-2.017 3.891-2.556l3.071-1.37s-0.011 0.859-0.019 1.421c1.174-0.166 9.087-1.286 9.087-1.286l0.97-0.099c3.843-0.402 8.201-0.858 12.037 3.051l0.024 0.025c3.129 3.371 4.924 9.094 4.924 15.701 0 7.29-1.983 13.193-5.585 16.621l-0.042 0.039c-4.171 3.725-8.93 3.03-13.129 2.417 0 0-8.761-1.358-8.799-1.363s-9.073-1.123-9.073-1.123l0.049-1.966 0.013-0.874 0.504-0.587c0.881-1.04 0.977-2.044 1.01-4.44 0 0 0.026-1.89 0.054-3.876-2.494 4.049-6.255 10.156-6.255 10.156l-0.684 1.102-9.833-0.684-0.089-1.9-0.025-0.445-0.026-0.472 0.51-0.645c1.339-1.663 1.546-2.337 1.588-5.165l0.2-13.54c0.005-0.317 0.009-0.631 0.009-0.938 0-0.755-0.03-1.466-0.153-2.081-0.648 0.941-0.876 1.638-1.408 3.315l-6.719 21.15-1.62-0.058c-2.719-0.092-5.498-0.213-8.256-0.358l-2.053-0.108 0.052-3.638 1.399-0.51c0.062-0.021 0.11-0.04 0.155-0.058-0.084-0.414-0.256-1.025-0.333-1.299l-0.184-0.683s-1.366-4.784-2.572-9.01c-0.742-0.571-3.686-2.833-3.686-2.833-0.629-0.483-2.3-1.769-3.499-1.723l-0.633 0.016c-0.241 0.004-0.493 0.011-0.737 0.024-0.007 1.802-0.043 12.17-0.043 12.17l-0.008 0.636-0.005 0.597c0 1.196 0.109 1.778 0.366 1.947l0.962 0.633v3.386l-2.131 0.005c-2.969 0.008-5.979-0.013-8.946-0.064 0 0-1.101-0.019-1.283-0.022v0.247l-2.708 0.03s-0.301-0.147-0.33-0.161c-0.134-0.011-0.381-0.012-0.5-0.011-3.748 0.075-7.59 0.104-11.396 0.085l-10.059 0.002 0.058-2.207 0.013-0.645 0.015-0.761 1.175-0.573c0.769-0.373 0.769-0.524 0.769-0.733-0.001-0.349-0.155-0.906-0.279-1.353l-0.044-0.16c-0.003-0.01-1.443-5.368-1.566-5.825-0.975 3.095-2.062 6.545-2.062 6.545l-0.024-0.048c-0.042 0.223-0.098 0.436-0.151 0.605-0.221 0.696-0.723 2.282-0.773 2.901 0.006 0.055 0.021 0.183 0.021 0.183l-0.016 2.314-1.167 0.067c-0.066 0.004-6.673 0.384-10.894 0.555-2.064 0.084-12.939 0.987-13.048 0.997l-1.353 0.112 0.005-2.305 0.002-1.124 0.773-0.641c0.542-0.447 0.609-1.508 0.609-2.706 0-0.192-0.002-0.389-0.004-0.587l-0.003-0.669c0-0.015 0.01-6.787 0.016-11.243-0.369-0.382-2.104-2.181-2.104-2.181-0.927-0.96-2.137-1.507-3.596-1.625-0.325-0.027-0.706 0.033-1.117 0.161-0.008 1.53-0.081 16.393-0.081 16.393l-0.01 0.81-0.007 0.676c0 1.33 0.125 1.491 0.561 1.841l0.796 0.643-0.011 3.039-1.869 0.224c-2.904 0.351-5.861 0.68-8.787 0.978l-1.053 0.108c-0.071 0.014-1.108 0.216-1.108 0.216-0.835 0.163-1.694 0.416-2.603 0.684-1.415 0.417-2.86 0.843-4.396 0.992-5.329 0.513-9.903-1.029-13.228-4.46"/><path d="m384.82 325.76c0.776 0.077 1.373-0.116 1.937-0.627 1.874-1.697 2.539-5.979 2.539-9.13 0-2.562-0.565-5.233-1.589-7.52-1.064-2.272-1.979-2.347-3.359-2.198-0.217 0.024-0.441 0.063-0.683 0.121v19.146c0.417 0.095 0.806 0.173 1.155 0.208m-12.018-1.351c-0.006 0.368-0.009 0.712-0.009 1.035 0 1.3 0.058 2.245 0.255 3.019 0.075-1.068 0.115-3.238 0.115-6.485v-14.65l0.002-0.623c0.001-0.15 0.002-0.315 0.002-0.49 0-0.64-0.014-1.414-0.095-2.075-0.086 6.475-0.27 20.269-0.27 20.269m-29.537-28.586c0.723-0.016 1.159-0.081 1.267-0.272l0.306-0.539h-0.022s-0.282-0.128-0.317-0.144c-0.059-0.007-0.18-0.018-0.403-0.018h-0.831v0.973zm-28.581-2.741 2.201 1.596c0.703 0.488 1.177 0.693 1.81 0.76v-10.987l0.009-1.052c0-0.93-0.077-1.311-0.193-1.505-0.906 0.922-1.086 1.416-1.585 2.787l-0.186 0.507s-1.284 3.554-2.686 7.436c0.222 0.161 0.63 0.458 0.63 0.458m-4.181 9.37s-0.062 0.171-0.119 0.329c0.259 0 0.635-0.001 0.635-0.001 1.264-0.002 2.538-0.023 3.808-0.036-0.015-0.06-1.412-5.663-1.809-7.253-1.334 3.692-2.515 6.961-2.515 6.961m-13.275-9.344s1.029 4.641 1.526 6.881v-0.099l0.96-0.633c0.114-0.075 0.185-0.134 0.23-0.175-0.062-0.313-0.284-0.973-0.366-1.213-0.003-0.011-0.151-0.463-0.2-0.611l-4.402-12.928c-0.385-1.107-0.639-1.704-1.073-2.249-0.229 0.483-0.275 1.145-0.275 2.435v10.97c0.088-0.022 0.124-0.042 0.128-0.045l0.02-0.048 2.621-6.031 0.831 3.746zm-24.044 3.172c1.001 0 2.152-0.407 3.33-1.175 0 0 0.596-0.389 1.004-0.655-0.007-0.027-0.086-0.342-0.102-0.409-0.974 0.598-1.969 1.058-2.945 1.491l-0.165 0.074 0.113-0.057-0.504 0.225c-0.206 0.087-0.681 0.289-1.032 0.481 0.099 0.014 0.201 0.025 0.301 0.025m61.554 10.406c0 0.451 0.287 1.442 0.425 1.918 0 0.001 0.132 0.451 0.264 0.907 0.507-0.021 2.201-0.09 3.066-0.125 0.267-0.894 0.676-2.265 0.676-2.265l0.017-0.052c0.156-0.485 0.156-0.485 0.161-0.792v-0.031c0-0.073-0.003-0.108-0.007-0.128-0.037-0.04-0.126-0.117-0.353-0.278l-0.913-0.649s0.022-1.67 0.025-1.917h-2.246l-0.021 1.067-0.027 1s-0.57 0.547-0.6 0.576c-0.438 0.443-0.464 0.582-0.467 0.769m-25.48 15.278 0.007 0.897c0 0.014-0.003 1.475-0.006 2.934 0.03-0.021 0.085-0.06 0.085-0.06 0.494-0.346 0.952-0.945 0.96-2.972 0-0.001-0.053-6.778-0.082-10.491-0.51 0.006-1.724 0.021-1.745 0.021-0.002 0.369-0.01 1.783-0.01 1.783 0 0.003-0.015 6.292-0.016 6.65 0.367-0.002 0.797-0.004 0.797-0.004l0.01 1.242zm-5.562-8.771c0.243-0.002 0.412-0.009 0.52-0.019 0.057-0.179 0.397-1.238 0.397-1.238s3.234-0.011 3.577-0.012c-0.041-0.054-0.372-0.497-0.372-0.497-0.576-0.762-1.34-1.032-2.911-1.028-0.361 0-0.781 0.014-1.204 0.06-0.002 0.894-0.004 1.711-0.007 2.734m-0.02 9.096c1.058-0.025 1.327-0.145 1.465-0.41 0 0 0.345-0.659 0.44-0.84-0.076-0.036-0.198-0.095-0.232-0.111-0.059-0.007-0.166-0.014-0.357-0.014l0.024-0.023c-0.091 0.009-0.175 0.023-0.28 0.024 0 0-0.899 0.001-1.057 0.002-0.001 0.598-0.002 0.771-0.003 1.372m-10.142 0.567 0.03-13.095c0-2.12-0.506-2.756-0.947-3.073l-0.89-0.639v-2.775h-3.624c0.819 2.955 3.791 13.67 5.431 19.582m-17.956-12.236s0.161 0.701 0.272 1.184c0.567-1.712 0.961-2.9 0.961-2.9 0.732-2.158 1.395-3.714 3.496-5.33-0.243 0.039-0.494 0.078-0.494 0.078s-0.314-1.255-0.343-1.373c-0.219 0.086-1.011 0.395-1.011 0.395-1.362 0.532-2.906 0.885-4.471 1.035 0.314 1.363 1.59 6.911 1.59 6.911m-3.366 11.842s0.001 0.177 0.001 0.321c0.802-2.421 2.402-7.252 3.487-10.527-0.371-0.03-3.775-0.3-3.775-0.3l-0.581-0.812c-0.865-1.224-2.839-1.452-3.647-1.493-0.362-0.019-0.753-0.023-1.138-0.005-0.001 1.048-0.003 2.259-0.005 3.424 0.101-0.006 0.18-0.013 0.237-0.021 0.057-0.189 0.4-1.334 0.4-1.334l3.875 0.023 0.009 2.12-0.012 7.355c0.253-0.014 1.145-0.063 1.145-0.063l0.004 1.312zm-5.672 0.346s-0.001 0.186-0.001 0.255c1.165-0.087 1.358-0.243 1.517-0.574l0.546-1.141s2.101-0.115 2.227-0.122c-0.306 0.008-2.003 0.053-2.003 0.053l-0.53 0.015s-0.315-0.157-0.341-0.17c-0.061-0.005-0.166-0.009-0.328-0.005-0.003 0-0.534 0.01-1.085 0.02-0.001 0.815-0.002 1.669-0.002 1.669m-28.533 0.277s0.547 2.79 1.06 5.405c0.085-0.471 0.104-1.052 0.104-1.825 0-0.13-0.002-1.157-0.002-1.157 0-0.006 0.041-8.739 0.064-13.745-0.193-0.166-2.098-1.795-2.098-1.795-2.427-2.075-4.705-3.175-6.77-3.268-1.203-0.057-2.166 0.284-2.946 1.04-1.596 1.546-2.473 4.828-2.407 9.002 0.06 4.092 0.869 7.068 2.277 8.38 0.7 0.651 1.569 0.924 2.734 0.857 1.822-0.107 3.167-1.032 4.744-2.489l2.81-2.594 0.43 2.189zm-20.291 8.008-0.019-0.019-0.045-0.049c-2.946-3.317-4.774-9.136-4.659-14.822 0.116-5.926 1.895-11.129 5.012-14.652 3.675-4.284 7.894-4.552 11.158-4.305 2.767 0.206 5.75 0.894 8.182 1.887 0 0 0.5 0.204 0.564 0.23 0.002-0.334 0.004-0.67 0.004-0.67l2.375 0.299c4.734 0.57 9.554 1.076 14.32 1.503l1.498 0.135 0.023 0.09c0.061 0.005 1.183 0.102 1.183 0.102 2.55 0.22 5.124 0.416 7.703 0.594-1.722-1.49-2.741-3.687-2.741-6.013 0-5.537 4.327-7.558 7.19-8.895 0.757-0.354 2.288-1.073 2.507-1.454-0.169-0.093-0.589-0.216-1.211-0.216-1.732 0-3.875 0.816-5.331 2.031l-4.84 4.037 2.689-11.917 1.053-0.414c2.219-0.872 4.564-1.314 6.97-1.314 2.284 0 4.956 0.249 7.461 2.103 2.205 1.65 3.417 4.122 3.417 6.966 0 2.562-0.978 4.624-3.078 6.49l-0.009 0.006c0.078 0.057 0.427 0.31 0.433 0.314 0.076-0.05 0.294-0.191 0.294-0.191v0.404c0.515 0.374 1.826 1.325 1.826 1.325 0.703 0.488 1.177 0.693 1.809 0.76v-10.987l0.009-1.051c0-1.344-0.159-1.553-0.367-1.687l-0.982-0.63v-3.401h21.359v3.228l-0.871 0.733c-0.052 0.044-0.172 0.144-0.263 0.227 0.065 0.397 0.333 1.176 0.429 1.456 0 0 0.139 0.399 0.28 0.803h3.26c0.251-0.751 0.564-1.685 0.564-1.685 0.008-0.025 0.142-0.403 0.143-0.405l-0.001-0.018c0-0.019 0.001-0.05 0.001-0.076-0.06-0.049-0.161-0.124-0.35-0.249l-0.956-0.633v-3.381h24.564v3.154l-0.668 0.632c-0.648 0.612-0.735 1.167-0.735 3.048v10.969c0.087-0.021 0.123-0.04 0.127-0.043l-0.001-0.001 0.02-0.046 2.62-6.039s1.158 5.219 1.454 6.555v-11.492l0.005-0.588c0.003-0.162 0.004-0.312 0.004-0.45 0-1.139-0.087-1.488-0.368-1.668l-0.981-0.631v-3.4h17.92l2.39 9.165h-3.941l-0.641-0.788c-0.485-0.597-1.181-0.994-3-0.994-0.362 0-0.786 0.012-1.213 0.054v2.237c0.033-0.002 0.066-0.004 0.092-0.006 0.052-0.153 0.395-1.147 0.395-1.147h3.819v8.263h1.054v6.81c5.059-0.389 9.862-0.807 9.939-0.814l1.364-0.12-0.016 2.367-0.01 0.839-0.45 0.585c-0.966 1.199-1.175 2.796-1.206 4.991l-0.005 0.335s-0.019 1.334-0.036 2.435c1.17-1.94 2.339-3.881 2.339-3.881l-0.014 0.05c0.102-0.2 0.278-0.504 0.597-1.055 1.279-2.222 2.205-3.829 4.667-5.636l-0.011 0.022c0.119-0.101 0.257-0.207 0.42-0.329 1.133-0.851 2.685-2.017 3.891-2.556l3.071-1.37s-0.011 0.859-0.019 1.421c1.174-0.166 9.087-1.286 9.087-1.286l0.97-0.099c3.843-0.402 8.201-0.858 12.037 3.051l0.024 0.025c3.129 3.371 4.924 9.094 4.924 15.701 0 7.29-1.983 13.193-5.585 16.621l-0.042 0.039c-4.171 3.725-8.93 3.03-13.129 2.417 0 0-8.761-1.358-8.799-1.363s-9.073-1.123-9.073-1.123l0.049-1.966 0.013-0.874 0.504-0.587c0.881-1.04 0.977-2.044 1.01-4.44 0 0 0.026-1.89 0.054-3.876-2.494 4.049-6.255 10.156-6.255 10.156l-0.684 1.102-9.833-0.684-0.089-1.9-0.025-0.445-0.026-0.472 0.51-0.645c1.339-1.663 1.546-2.337 1.588-5.165l0.2-13.54c0.005-0.317 0.009-0.631 0.009-0.938 0-0.755-0.03-1.466-0.153-2.081-0.648 0.941-0.876 1.638-1.408 3.315l-6.719 21.15-1.62-0.058c-2.719-0.092-5.498-0.213-8.256-0.358l-2.053-0.108 0.052-3.638 1.399-0.51c0.062-0.021 0.11-0.04 0.155-0.058-0.084-0.414-0.256-1.025-0.333-1.299l-0.184-0.683s-1.366-4.784-2.572-9.01c-0.742-0.571-3.686-2.833-3.686-2.833-0.629-0.483-2.3-1.769-3.499-1.723l-0.633 0.016c-0.241 0.004-0.493 0.011-0.737 0.024-0.007 1.802-0.043 12.17-0.043 12.17l-0.008 0.636-0.005 0.597c0 1.196 0.109 1.778 0.366 1.947l0.962 0.633v3.386l-2.131 0.005c-2.969 0.008-5.979-0.013-8.946-0.064 0 0-1.101-0.019-1.283-0.022v0.247l-2.708 0.03s-0.301-0.147-0.33-0.161c-0.134-0.011-0.381-0.012-0.5-0.011-3.748 0.075-7.59 0.104-11.396 0.085l-10.059 0.002 0.058-2.207 0.013-0.645 0.015-0.761 1.175-0.573c0.769-0.373 0.769-0.524 0.769-0.733-0.001-0.349-0.155-0.906-0.279-1.353l-0.044-0.16c-0.003-0.01-1.443-5.368-1.566-5.825-0.975 3.095-2.062 6.545-2.062 6.545l-0.024-0.048c-0.042 0.223-0.098 0.436-0.151 0.605-0.221 0.696-0.723 2.282-0.773 2.901 0.006 0.055 0.021 0.183 0.021 0.183l-0.016 2.314-1.167 0.067c-0.066 0.004-6.673 0.384-10.894 0.555-2.064 0.084-12.939 0.987-13.048 0.997l-1.353 0.112 0.005-2.305 0.002-1.124 0.773-0.641c0.542-0.447 0.609-1.508 0.609-2.706 0-0.192-0.002-0.389-0.004-0.587l-0.003-0.669c0-0.015 0.01-6.787 0.016-11.243-0.369-0.382-2.104-2.181-2.104-2.181-0.927-0.96-2.137-1.507-3.596-1.625-0.325-0.027-0.706 0.033-1.117 0.161-0.008 1.53-0.081 16.393-0.081 16.393l-0.01 0.81-0.007 0.676c0 1.33 0.125 1.491 0.561 1.841l0.796 0.643-0.011 3.039-1.869 0.224c-2.904 0.351-5.861 0.68-8.787 0.978l-1.053 0.108c-0.071 0.014-1.108 0.216-1.108 0.216-0.835 0.163-1.694 0.416-2.603 0.684-1.415 0.417-2.86 0.843-4.396 0.992-5.329 0.513-9.903-1.029-13.228-4.46"/><path d="m95.449 91.979-0.05273 0.45117s-0.43781 3.0975 2.0547 4.2188c2.1525 0.97 3.5423 0.23094 4.2285-0.28906 0.68625-0.52 0.67773-1.2012 0.67773-1.2012l-6.9082-3.1797zm41.977 0.10742-6.9199 3.1484s0.002 0.71242 0.6875 1.2324c0.68625 0.52125 2.076 1.2598 4.2285 0.29102 2.4937-1.1225 2.0547-4.2207 2.0547-4.2207l-0.0508-0.45117zm-124.2 6.33c0.005 1.1838 0.01133 2.3663 0.01758 3.5488 69.042 10.888 139.37 10.896 208.42 0.0273-0.0112-1.1925-0.0226-2.3837-0.0351-3.5762-69.036 10.935-139.36 10.935-208.4 0zm50.77 78.566v3.5039h105.37v-3.5039h-105.37z" transform="matrix(.8 0 0 -.8 212.99 418.57)" fill="#006a4d"/><path d="m116.48 68.861c-1.9938 0-3.6094 1.6645-3.6094 3.7207s1.6156 3.7246 3.6094 3.7246c1.9925 0 3.6094-1.6684 3.6094-3.7246s-1.6169-3.7207-3.6094-3.7207zm-21.672 1.4434c-1.9938 0-3.6094 1.6664-3.6094 3.7227 0 2.0562 1.6156 3.7246 3.6094 3.7246s3.6113-1.6684 3.6113-3.7246-1.6176-3.7227-3.6113-3.7227zm42.879 0.0918c-1.9938 0-3.6094 1.6684-3.6094 3.7246s1.6156 3.7227 3.6094 3.7227c1.9925 0 3.6113-1.6664 3.6113-3.7227 0-2.0562-1.6188-3.7246-3.6113-3.7246zm20.229 4.1367c-1.9925 0-3.6094 1.6664-3.6094 3.7227 0 2.0562 1.6169 3.7227 3.6094 3.7227 1.995 0 3.6094-1.6664 3.6094-3.7227 0-2.0562-1.6144-3.7227-3.6094-3.7227zm-83.516 0.10547c-1.9925 0-3.6094 1.6664-3.6094 3.7227 0 2.0562 1.6169 3.7227 3.6094 3.7227 1.995 0 3.6094-1.6664 3.6094-3.7227 0-2.0562-1.6144-3.7227-3.6094-3.7227zm23.301 18.252c-0.19875 0.1425-0.3525 0.33617-0.4375 0.57617-0.2725 0.76875 0.03969 1.7353 0.96094 2.1328s2.0986 0.07664 2.3711-0.69336c0.0737-0.2075 0.0897-0.42969 0.0547-0.64844l-2.9492-1.3672zm37.49 0.07422-2.9394 1.3438c-0.04 0.2275-0.0274 0.45758 0.0488 0.67383 0.2725 0.77 1.4511 1.0921 2.3711 0.69336 0.92-0.3975 1.2334-1.3641 0.96094-2.1328-0.085-0.24125-0.24016-0.43688-0.44141-0.57812z" transform="matrix(.8 0 0 -.8 212.99 418.57)"/><path d="m173.03 7.2656c-3.4492-0.014574-3.5504 14.675-2.6113 25.365 1.04 11.801-7.5313 12.955-7.5313 12.955s2.6659 3.3227 6.3047 9.4277c3.5525 5.95 4.498 11.158 4.498 11.158s4.6552-1.1041 10.129-6.7129c10.909-11.171 4.6152-25.853-0.47852-36.408-5.09-10.555-8.0952-14.478-9.1289-15.287-0.43-0.3368-0.82-0.4965-1.18-0.498zm-113.48 0.0078c-0.35682 0.00151-0.74867 0.15918-1.1797 0.49609-1.0338 0.80875-4.0396 4.7341-9.1309 15.289-5.0938 10.554-11.387 25.236-0.48047 36.408 5.4738 5.6075 10.131 6.7129 10.131 6.7129s0.94555-5.2102 4.498-11.16c3.6388-6.1038 6.3047-9.4258 6.3047-9.4258s-8.5693-1.1538-7.5293-12.955c0.938-10.69 0.835-25.379-2.614-25.365zm57.327 63.463c-0.0787 0-0.15617 0.0056-0.23242 0.01563 0 0 1.2012 0.35062 1.2012 1.8594s-1.1621 1.8867-1.1621 1.8867c0.0637 0.0075 0.12836 0.0098 0.19336 0.0098 1.0475 0 1.8965-0.84547 1.8965-1.8867s-0.84898-1.8848-1.8965-1.8848zm-21.67 1.4473c-0.07875 0-0.15688 0.0049-0.23438 0.01367 0 0 1.2031 0.35188 1.2031 1.8594 0 1.5088-1.1621 1.8867-1.1621 1.8867 0.06375 0.0075 0.12836 0.01172 0.19336 0.01172 1.0488 0 1.8965-0.84547 1.8965-1.8867s-0.84773-1.8848-1.8965-1.8848zm42.879 0.0918c-0.0787 0-0.15617 0.0042-0.23242 0.01172 0 0 1.1992 0.35383 1.1992 1.8613 0 1.51-1.1602 1.8867-1.1602 1.8867 0.0637 0.0075 0.12711 0.01172 0.19336 0.01172 1.0488 0 1.8965-0.84672 1.8965-1.8867 0-1.0412-0.84774-1.8848-1.8965-1.8848zm20.227 4.1367c-0.0788 0-0.15688 0.0049-0.23438 0.01367 0 0 1.2031 0.35383 1.2031 1.8613 0 1.5088-1.1621 1.8867-1.1621 1.8867 0.0625 0.0075 0.12836 0.0098 0.19336 0.0098 1.0488 0 1.8965-0.84477 1.8965-1.8848 0-1.0412-0.84773-1.8867-1.8965-1.8867zm-83.516 0.10352c-0.0775 0-0.15492 0.0037-0.23242 0.01367 0 0 1.2012 0.35258 1.2012 1.8613 0 1.5075-1.1602 1.8867-1.1602 1.8867 0.06375 0.0062 0.12641 0.0098 0.19141 0.0098 1.0488 0 1.8984-0.84476 1.8984-1.8848 0-1.0425-0.84969-1.8867-1.8984-1.8867zm-54.931 28.574c-5.1977-0.006-9.6569 1.7745-12.996 5.2188l-0.015625 0.0176-0.015625 0.0195c-3.4362 3.87-5.5691 10.723-5.4316 17.461 0.1375 7.0375 2.2218 13.188 5.873 17.314 4.1287 4.8125 8.7184 5.1581 12.662 4.8594 3.3062-0.24625 6.8641-1.0648 9.7578-2.2461l0.50781-0.20704 3.5879-13.07-2.7559 2.3574c-3.3038 2.8262-6.47 4.3252-9.4062 4.459-1.9288 0.0888-3.5534-0.49508-4.8359-1.7363-2.335-2.265-3.5724-6.6677-3.4824-12.396 0.0825-5.6238 1.238-9.6318 3.3418-11.592 1.1913-1.1075 2.6846-1.5926 4.5684-1.4863 2.7338 0.1625 4.7359 1.524 6.8984 3.5215l1.4629 1.3516 2.2461-11.447-1.0938-0.21484c-1.1238-0.21875-2.238-0.54774-3.418-0.89649-1.6775-0.49375-3.4136-1.0045-5.1836-1.1758-0.77156-0.0742-1.529-0.11045-2.2715-0.11133zm196.58 0.16211c-1.9368 0.0273-3.894 0.31157-5.8262 0.59375l-11.008 1.707-9.9629 1.2324 0.0254 1.0469 0.008 0.54297 0.26171 0.30664c1.5013 1.7712 1.5974 3.5505 1.6387 6.543 0 0 0.10773 7.7366 0.14648 10.494-3.5338-5.775-7.1468-11.641-10.779-17.5l-0.35937-0.58008-9.9727 0.69336-0.0449 0.99024-0.0312 0.57031 0.27149 0.34375c1.9888 2.4675 2.2666 3.7197 2.3203 7.3984l0.25 16.926c0.0375 2.59 0.0742 5.0372-1.3945 6.6172l-0.0586 0.0586-0.21484-0.24414c-2.1262-2.5612-2.3544-3.2811-3.3144-6.3086l-8.0391-25.309-0.84375 0.0293c-3.3925 0.11625-6.8562 0.26601-10.295 0.44726l-1.0684 0.0566 0.0273 1.9727 0.74218 0.27148c1.2662 0.435 1.2748 0.93196 1.2774 1.0957 0.01 0.54625-0.31891 1.7131-0.53516 2.4844l-0.24219 0.9043 0.01-0.043-5.1484 18.035c-0.68 2.2975-1.2243 3.6191-2.4668 4.8828l-0.32812 0.33398 0.0332 1.6543 10.338 0.375-0.0254-1.1777-0.0156-0.60157-0.31055-0.29687c-0.6475-0.6525-1.0253-1.1978-1.0391-2.0391v-0.0391c0-0.7725 0.37-2.0523 0.59375-2.8223 0 0 0.40492-1.3908 0.66992-2.3008 1.2112 0.0488 5.0459 0.2057 6.1621 0.25195 0.31625 1.0612 1.1523 3.8594 1.1523 3.8594l0.0215 0.0723c0.225 0.69625 0.26539 0.82195 0.27539 1.4394v0.0625c0 0.9-0.32477 1.2256-1.1035 1.7793l-0.47461 0.33594 0.0215 1.7754 1.043 0.0449c7.6025 0.38875 23.113 1.7441 23.113 1.7441l-0.008-1.2461-0.008-0.52149-0.24414-0.31836c-1.4662-1.8212-1.7883-4.0937-1.832-7.1699 0 0-0.10531-7.2621-0.13281-9.2246 2.2512 3.7362 5.9141 9.8125 5.9141 9.8125l0.72852 1.2559c1.5612 2.7138 2.5925 4.5066 5.4062 6.5703l0.52148 0.39258c1.3575 1.02 3.2189 2.417 4.5664 3.0195l1.6133 0.71875-0.42188-31.65c-0.05-3.58-0.004-5.8746 1.4668-7.8496l0.20508-0.27734 0.53515 0.26562c0.43626 0.21125 0.99938 1.0261 1.1406 1.9024 0.22 1.5988 0.2207 7.1516 0.2207 8.9766v18.314l0.002 0.76953c0.0163 2.5638 0.0333 5.4688-1.6055 6.3438l-0.60547 0.32226v1.8594l12.178 1.7226 1.1816 0.1211c4.6738 0.49 9.5066 0.99648 13.775-3.3535 3.655-3.9375 5.7402-10.696 5.7402-18.566 0-8.6825-2.3088-15.66-6.5-19.648l-0.0254-0.0234c-2.9125-2.6024-6.0846-3.2741-9.3125-3.2285zm-184.09 2.3223 0.0078 1.2363 0.002 0.64257 0.3457 0.32422c1.435 1.35 1.426 3.0893 1.416 5.498v0.93359l0.09961 21.449 0.0098 0.91797c0.035 2.6625 0.07438 5.6789-1.3906 7.1914l-0.3125 0.32226 0.002 0.63282 0.0078 1.2383 1.2285-0.15625c5.9425-0.715 11.985-1.3478 17.957-1.8828l0.77539-0.0703 0.19531-0.75586c0.425-1.6488 0.69789-3.1023 0.96289-4.5098 0.2225-1.1875 0.43344-2.3092 0.71094-3.3867l1.0488-4.0606-2.9141 3.0176c-1.4288 1.4825-3.2758 2.3239-5.4883 2.5039-1.1012 0.0888-2.2062-0.27946-3.0762-0.68946-0.0037-0.885-0.10547-21.549-0.10547-21.549l-0.01172-1c-0.0063-0.3125-0.0098-0.59899-0.0098-0.86524 0-1.825 0.17875-2.6256 1.2812-3.5156l0.41211-0.33204-0.0059-1.6719-0.96875-0.11719c-3.6412-0.43875-7.3276-0.84875-10.955-1.2188l-1.2246-0.12695zm21.477 2.373 0.002 1.1855 0.002 0.67578 0.4043 0.33594c1.3588 1.1175 1.3403 3.1645 1.3203 5.332l-0.0039 0.82813 0.02539 18.809 0.0098 0.88672c0.02875 2.1612 0.05555 4.2012-1.3145 5.4199l-0.375 0.33399 0.0078 1.8633 1.2031-0.10352c6.085-0.525 12.268-0.95695 18.375-1.2832l0.83789-0.0469 2.2344-9.7148-2.2012 0.17383-0.30664 0.42578c-1.4188 2.0062-4.2086 2.4369-5.7461 2.5156-1.025 0.0525-2.0891 0.0556-3.0566-0.18945-0.0012-1.0888-0.0092-5.9356-0.01172-7.2031 0.0725-0.001 0.2207-0.002 0.2207-0.002l0.35547-0.006c1.7038-0.0288 2.4555 0.0923 2.6992 0.90235l0.24024 0.79687 2.1348-0.0117 0.0059-1.1074-0.01367-7.6797-1.2832-0.0332-0.27539-0.008-0.25 0.125c-0.02125 0.01-0.22555 0.10021-0.9668 0.084 0 0-1.702-0.0322-2.877-0.0547-0.0025-1.335-0.0066-4.1552-0.0078-5.584 0.175 0.0112 0.44141 0.0273 0.44141 0.0273l0.50195 0.0254c1.9925 0.0937 3.253 0.25257 3.918 1.6426l0.2832 0.59375 1.9492 0.10743 0.0039-1.1777-0.0078-5.752 0.34766 0.36914c0.88125 0.9775 1.602 2.3005 2.082 3.8242l6.3574 19.197c0.9625 2.8375 1.6841 4.3654 4.1328 6.1504 1.4188 1.0438 3.0101 1.7186 4.5488 2.3711l1.3281 0.56445h-4.8906c-0.13625-0.0212-1.6777-0.26758-1.6777-0.26758l-0.24805 0.99024-2.293 9.1992 2.75-1.9941c1.3975-0.97125 2.3385-1.2871 3.8535-1.2871 0.32875 0 0.61211 0.003 0.88086 0.0176v15.312l0.0059 0.72266c0.0037 0.205 0.0059 0.40305 0.0059 0.5918 0 1.6725-0.15578 2.7642-1.1758 3.418l-0.51172 0.33007v1.8418h23.584v-1.752l-0.53321-0.44922c-0.6825-0.57125-0.90234-0.79828-0.90234-1.3008 0-0.6475 0.40063-1.8109 0.64063-2.5059 0 0 0.42914-1.2358 0.71289-2.0508h6.3047c0.33125 0.98875 1.0606 3.168 1.0606 3.168 0.0113 0.0325 0.0254 0.0703 0.0254 0.0703 0.21375 0.57875 0.23633 0.64094 0.23633 1.1172 0 0.685-0.25672 0.95726-1.1367 1.541l-0.49805 0.33008v1.832h27.59v-1.7129l-0.34766-0.33008c-1.34-1.265-1.4062-2.6326-1.4062-4.9414v-15.289c0.29-0.0312 0.59117-0.041 0.91992-0.041 1.5575 0 2.0112 0.56133 2.25 1.1113l1.3633 3.1465 1.9942-8.9824 0.1875 0.0156 0.52539 0.32813c1.145 0.71375 1.185 1.9711 1.1562 3.9648l-0.006 0.72071v15.146l0.006 0.71875c0.0288 1.9788-0.0124 3.2309-1.1699 3.9746l-0.51171 0.32812v1.8418h19.639l2.1758-8.3398h-2.1699l-0.33399 0.41015c-1.0488 1.29-2.4845 1.8164-4.957 1.8164-1.0275 0-2.093-0.0538-3.0742-0.3125v-5.6836h0.20313l0.3789-0.004c1.6125-0.0138 2.223 0.0922 2.4356 0.71094l0.25977 0.75195h2.1055v-7.8965h-1.5508l-0.21875 0.0996c-0.0387 0.0163-0.26634 0.10156-1.0176 0.10156h-2.5957v-4.3359h0.16211l0.52734-0.002c1.9588-0.0175 3.1936 0.0512 3.8086 1.1387l0.32031 0.56445h1.8809v-8.0976h-1.4766l-0.22266 0.10351c-0.2175 0.1-0.79148 0.0996-1.209 0.0996h-16.855-17.797c-0.13625-0.0212-1.6797-0.26758-1.6797-0.26758l-0.2461 0.99024-2.2949 9.1992 2.75-1.9941c1.3988-0.97125 2.3385-1.2871 3.8535-1.2871 0.33 0 0.61211 0.002 0.88086 0.0156v15.314l0.006 0.72266c0.002 0.205 0.006 0.40375 0.006 0.59375 0 1.6712-0.15578 2.763-1.1758 3.418l-0.50976 0.32812-0.29102 0.12891-0.34765-0.33008c-1.8875-1.7825-2.1699-2.5552-2.9199-4.6152l-0.23047-0.63086-7.7988-21.586h-11.664v1.832l0.5 0.33008c0.9 0.595 1.0156 1.0719 1.0156 1.4219 0 0.445-0.35586 1.4902-0.56836 2.1152l-0.26562 0.80859-5.4883 16.117c-0.67875 1.9575-1.119 2.9506-2.459 4.2031l-0.41602 0.39843-0.43554-0.39453c-1.3413-1.2662-1.4063-2.6339-1.4063-4.9414v-15.289c0.29-0.0312 0.59313-0.041 0.92187-0.041 1.555 0 2.0093 0.56133 2.248 1.1113l1.3652 3.1426 2.4004-10.814h-14.338l0.2832-1.002 8.4375-30.424 0.50586 0.32812c1.1362 0.74125 1.2034 2.1278 1.1797 4.3203l-0.006 0.77539 0.0371 16.295c0.006 2.6438-0.55953 4.2327-1.832 5.1465l-0.46289 0.33399v1.8398l1.1387-0.0273c6.0575-0.14625 12.175-0.19664 18.182-0.15039l0.88282 0.008 2.0957-8.6816-2.1602-0.0254-0.33593 0.44922c-1.2062 1.5912-2.8269 1.9152-4.8906 1.9102-1.0238-0.002-2.0847-0.0629-3.0547-0.33789-0.004-1.1025-0.0131-4.7934-0.0156-6.2734 0.38875 0.001 0.80078 0.004 0.80078 0.004l0.36719-0.004c1.6238-0.0175 2.2022 0.0979 2.4297 0.80664l0.24805 0.76953 2.127 0.008-0.006-1.1191-0.0176-7.2031-1.5566-0.01-0.23829 0.11328c-0.035 0.0175-0.24531 0.10212-0.97656 0.0996l-3.19 0.04c-0.002-1.2788-0.007-3.5452-0.01-4.834 0.20125 0.001 0.47851 0 0.47851 0h0.25196c2.0688-0.01 3.3742 0.0748 4.043 1.3535l0.31054 0.5957 1.8984 0.01 0.008-1.123-0.0156-7.3066-1.4785-0.0176-0.24609 0.1211c-0.19507 0.0957-0.7652 0.0931-1.1465 0.0918-4.7062-0.095-9.4944-0.13117-14.234-0.10742l-10.982-0.002 0.03125 1.1582 0.01563 0.81641 0.61328 0.29883c1.1338 0.55 1.8359 1.1314 1.8359 2.3164v0.01c-0.0012 0.64125-0.21555 1.4159-0.4043 2.0996l-0.05469 0.19726c-0.0012 0.004-2.063 7.672-3.3418 12.426-1.4125-4.4812-4.1816-13.271-4.1816-13.271l-0.21875-0.69922c-0.38125-1.1975-1.0106-3.1881-1.0469-4.1094 0.0037-0.0287 0.03516-0.29492 0.03516-0.29492l-0.0098-1.3379s-8.2693-0.4771-13.592-0.69335c-2.6438-0.10625-16.377-1.25-16.377-1.25zm79.119 2.4648c-3.7088-0.01-7.4591 0.0176-11.15 0.0801l-1.0938 0.0195v1.8027l0.47461 0.33203c1.2962 0.9075 1.8533 2.4001 1.8633 4.9863l-0.125 16.092 0.008 0.77539c0.004 0.25 0.008 0.49141 0.008 0.72266 0 1.765-0.16438 2.9938-1.1719 3.6738l-0.49023 0.33008v1.8301l1.1094 0.002c5.695 0.01 11.468 0.10852 17.158 0.29102l0.85351 0.0273 3.4199-11.285-2.748 2.1133c-1.5475 1.1888-3.5585 2.5446-5.3848 2.4746l-0.76953-0.0195c-0.8825-0.0162-1.7218-0.0375-2.4355-0.25-0.005-1.3162-0.0586-16.543-0.0586-16.543l-0.01-0.78321c-0.005-0.265-0.008-0.52187-0.008-0.76562 0-1.8212 0.16641-3.0806 1.1602-3.7344l0.5-0.33007v-1.8379l-1.1094-0.004zm82.54 1.94c0.975 0.0933 1.833 0.48422 2.6055 1.1836 2.7175 2.4612 3.6875 8.1071 3.6875 12.568 0 3.4175-0.755 6.9821-2.125 10.037-1.5938 3.4075-3.3289 3.9232-5.7852 3.6582-0.68-0.0737-1.3691-0.23625-2.2441-0.53125v-26.324c1.1312-0.29125 2.0157-0.50343 2.8457-0.58593 0.35186-0.035 0.69062-0.0369 1.0156-0.006zm-60.957 9.7363c0.46375 1.4825 0.87812 2.8026 1.2969 4.1426-0.99-0.0288-1.4698-0.0421-2.4023-0.0684 0.3325-1.2238 0.67422-2.483 1.1055-4.0742zm-80.524 20.83c-3.0412 0-5.5934 0.72555-7.5859 2.1543l-0.0059 0.004c-2.1338 1.5538-3.4082 4.0859-3.4082 6.7734 0 5.9288 4.6741 8.1113 8.0879 9.7051 2.5262 1.1812 4.0742 1.9717 4.0742 3.293 0 1.6362-2.3833 1.7637-3.1133 1.7637-2.5412 0-5.5496-1.1391-7.6621-2.9004l-2.5195-2.1016 2.168 9.6074 0.54883 0.2168c2.5912 1.0188 5.3313 1.5352 8.1426 1.5352 2.6 0 5.6309-0.27546 8.3984-2.3242 2.3488-1.7575 3.6387-4.4026 3.6387-7.4551 0-2.7612-1.0235-4.9035-3.3223-6.9473-1.6675-1.4812-3.4735-2.2841-5.3848-3.1328l-0.20703-0.0898-0.4707-0.20313c-1.5062-0.6375-2.6562-1.2001-2.6562-2.1426 0-1.4388 2.1162-1.4805 2.3574-1.4805 1.5538 0 3.2887 0.59641 5.0137 1.7227l1.7207 1.123v-7.5527l-0.70703-0.27539c-2.1325-0.8325-4.6574-1.293-7.1074-1.293zm40.34 12.029c0.56125 1.6275 0.83 2.4046 1.1875 3.4434h-2.3223c0.34-1.03 0.59602-1.8121 1.1348-3.4434z" transform="matrix(.8 0 0 -.8 212.99 418.57)" fill="#fff"/><path d="m20.186 106.03c-4.5773-0.0386-9.003 1.3822-12.393 4.8789-3.4688 3.9062-5.2729 10.69-5.1504 16.699 0.13 6.6612 2.1032 12.652 5.5957 16.6 3.5075 4.0875 7.2604 4.827 11.744 4.4883 2.9475-0.22 6.4474-0.95547 9.4199-2.168 0.82625-3.0175 1.6549-6.0298 2.4824-9.041-3.0825 2.6362-6.5524 4.5639-10.076 4.7226-6.7262 0.31375-9.6219-6.533-9.4844-15.262 0.1125-7.6475 2.1691-14.564 9.0879-14.172 3.0312 0.17875 5.2711 1.6744 7.5898 3.8144 0.55-2.8012 1.0977-5.6016 1.6465-8.4004-2.8325-0.5525-5.6504-1.7829-8.4941-2.0566-0.6575-0.0633-1.3148-0.098-1.9688-0.10351zm196.26 0.19531c-1.8289 0.0294-3.7092 0.2982-5.6113 0.57617l-10.029 1.5547v0.17578c0.845 0.41 1.582 1.5857 1.7695 2.752 0.235 1.7012 0.23438 7.1282 0.23438 9.1582v18.312c0 3.1012 0.24047 6.8175-2.207 8.125v0.17773l11.17 1.5801c5.0938 0.50125 9.8002 1.3853 14.004-2.8984 3.6325-3.9138 5.4121-10.735 5.4121-17.764 0-7.83-1.9163-14.796-6.1426-18.818-2.643-2.3609-5.5514-2.9806-8.5996-2.9316zm-182.88 2.4863v0.17383c1.995 1.8762 1.748 4.2412 1.7617 7.2324l0.10156 21.449c0.015 2.9875 0.28414 6.8396-1.6934 8.8809 0 0.0575 0.000703 0.11632 0.002 0.17382 5.99-0.72125 11.986-1.3499 17.988-1.8887 0.78375-3.0388 1.0645-5.5265 1.6758-7.8965-1.7788 1.8425-3.9628 2.6566-6.1953 2.8379-1.4612 0.11875-2.9631-0.38938-4.2656-1.1094-0.03625-7.4075-0.07383-14.816-0.11133-22.225-0.019-2.94-0.315-4.65 1.665-6.24 0-0.055-0.002-0.10976-0.002-0.16601-3.6475-0.43875-7.2911-0.84625-10.934-1.2188zm165.11 0.15625c-2.5975 0.275-5.1983 0.5689-7.8008 0.8789 0.001 0.0525 0.00071 0.105 0.002 0.15625 1.765 2.0838 1.865 4.1835 1.9062 7.2598 0.0675 4.8712 0.13617 9.7447 0.20117 14.617-4.3025-7.0525-8.612-14.057-12.926-21.014-2.76 0.1725-5.5253 0.36563-8.2891 0.57813-0.002 0.045-0.003 0.0898-0.006 0.13477 2.2312 2.77 2.5134 4.3225 2.5684 8.0938 0.0837 5.6425 0.16751 11.283 0.25 16.924 0.0425 2.85 0.0584 5.5168-1.6953 7.4043 0 0.0463 0.00071 0.0965 0.002 0.14649 2.6638 0.19499 5.327 0.41007 7.9883 0.64257-0.001-0.05-0.002-0.10109-0.002-0.15234-1.77-2.1975-2.0388-4.9556-2.0801-7.8594-0.0637-4.4-0.12836-8.7985-0.19336-13.197 0.0413 0 0.083-0.0007 0.12304-0.002 2.6512 4.3788 5.3017 8.7738 7.9492 13.188 2.0262 3.4525 2.819 5.2836 5.834 7.4961 1.2225 0.91 3.4609 2.6573 4.8809 3.291-0.13375-9.9625-0.2679-19.924-0.40039-29.885-0.05-3.605-0.0136-6.2471 1.6914-8.5371-0.002-0.0537-0.003-0.11031-0.004-0.16406zm-143.63 2.1641v0.15234c1.9725 1.6262 1.7189 4.4038 1.7227 7.0176l0.02539 18.809c0.0037 2.6138 0.28977 5.3906-1.6777 7.1406v0.15039c6.1338-0.5275 12.271-0.95445 18.412-1.2832 0.56875-2.4762 1.1383-4.9481 1.707-7.4219-0.0575 0.005-0.11508 0.0106-0.17383 0.0156-1.5288 2.16-4.3439 2.8674-6.5977 2.9824-1.4088 0.0712-2.8978 0.0584-4.2266-0.49414-0.005-3.0375-0.0099-6.0758-0.01367-9.1133 0.4425-0.005 0.88562-0.009 1.3281-0.0117 1.49-0.0125 3.5588-0.1993 4.125 1.6894 0.0675 0 0.13688-0.002 0.20312-0.002-0.0025-2.1988-0.008-4.3962-0.01172-6.5938-0.0675-0.001-0.13367-0.003-0.20117-0.006-0.3625 0.18125-0.92453 0.21367-1.4883 0.20117-1.3212-0.03-2.6416-0.0549-3.9629-0.0762l-0.0098-7.8555c0.54125 0.0312 1.0818 0.0652 1.623 0.0977 1.9712 0.11 4.2655 0.0199 5.3555 2.2949 0.04125 0.002 0.08109 0.005 0.12109 0.008-0.0037-2.2288-0.0073-4.4568-0.0098-6.6855-0.04-0.004-0.08109-0.007-0.12109-0.01-0.4425 0.1925-1.0877 0.13523-1.6914 0.084-4.815-0.42375-9.6275-0.78859-14.438-1.0898zm18.469 1.1523c0.0012 0.045 0.002 0.091 0.002 0.13477 1.0462 1.1612 1.8127 2.6376 2.3164 4.2363 2.1175 6.3825 4.236 12.776 6.3535 19.184 0.91875 2.7075 1.5342 3.9964 3.7305 5.5977 1.5175 1.1162 3.3016 1.8014 5.0078 2.5352 2.8462-10.201 5.6909-20.382 8.5371-30.539-0.0012-0.0463-0.0027-0.0917-0.0039-0.13672-2.585-0.0713-5.1709-0.12586-7.7559-0.16211 0 0.0463 0.0027 0.0917 0.0039 0.13672 1.1575 0.5625 2.4672 1.4101 2.4609 3.3301-0.0025 0.85875-0.28 1.7891-0.5 2.5879-1.4438 5.3625-2.8863 10.73-4.3301 16.104-1.775-5.645-3.5512-11.283-5.3262-16.91-0.37875-1.2375-1.2953-3.903-1.3203-5.168 0.0125-0.1075 0.02266-0.21211 0.03516-0.31836-0.0012-0.045-0.002-0.091-0.002-0.13476-3.0712-0.18375-6.1402-0.34282-9.209-0.47657zm86.068 0.19336c-3.4225 0.11625-6.8472 0.26532-10.273 0.44532 0.001 0.045 0.002 0.0917 0.002 0.13671 0.87375 0.3 2.008 0.89336 2.0293 2.1309 0.0162 0.96125-0.58734 2.7537-0.80859 3.6699-1.7162 6.0038-3.4322 12.015-5.1484 18.035-0.6725 2.2688-1.2691 3.8562-2.7441 5.3574 0.001 0.0437 0.003 0.0898 0.004 0.13477 2.7038 0.0787 5.4081 0.17742 8.1094 0.29492-0.001-0.0463-0.003-0.0937-0.004-0.13867-0.7225-0.7275-1.342-1.5272-1.3633-2.8047-0.0162-0.95625 0.395-2.3526 0.65625-3.2539 0.2975-1.025 0.59774-2.0492 0.89649-3.0742 2.6088 0.0888 5.2167 0.19531 7.8242 0.32031 0.46 1.54 0.92015 3.0786 1.3789 4.6211 0.24875 0.7675 0.33196 1.0106 0.34571 1.8106 0.025 1.5062-0.67672 2.1288-1.5742 2.7676 0.001 0.0475 0.003 0.0912 0.004 0.13867 3.9938 0.20375 7.9832 0.45219 11.971 0.74219l-0.002-0.0488v-0.0977c-2.29-2.76-2.5533-3.6389-3.5508-6.7852-2.5838-8.1512-5.1657-16.287-7.752-24.402zm55.418 0.61524c5.853-0.0715 7.9863 7.9648 7.9863 14.918 0 3.6925-0.84141 7.4221-2.2227 10.506-1.6875 3.6075-3.7338 4.6756-6.9551 4.3281-0.92125-0.0987-1.8419-0.32953-3.2656-0.86328v-28.02c1.6288-0.42 2.7539-0.72539 3.8789-0.83789 0.1966-0.0195 0.38932-0.0289 0.57813-0.0312zm-97.557 0.26562c-0.435 0.215-1.0703 0.21078-1.6641 0.20703-4.735-0.0937-9.472-0.12796-14.207-0.10546v0.13085c1.945 1.27 1.6747 3.7597 1.6797 6.0234l0.0371 16.297c0.005 2.265-0.35813 4.6602-2.2969 6.0527v0.13086c6.0737-0.1475 12.147-0.19789 18.217-0.15039 0.52-2.1562 1.0418-4.3118 1.5606-6.4668-0.0662 0-0.13227-0.0007-0.19727-0.002-1.5025 1.985-3.5625 2.3585-5.7812 2.3535-1.3875-0.004-2.8541-0.0891-4.1641-0.6504-0.006-2.73-0.012-5.4594-0.0195-8.1894 0.64125 0.001 1.2826 0.00086 1.9238 0.006 1.4675-0.004 3.2884-0.17133 3.8496 1.5762h0.19531c-0.005-2.0325-0.007-4.0659-0.0137-6.0996-0.065 0-0.13227 0.001-0.19727 0-0.35625 0.17375-0.91055 0.21219-1.4668 0.21094-1.4337-0.009-2.867-0.0103-4.3008-0.008-0.005-2.3525-0.0119-4.7061-0.0156-7.0586 0.5325 0 1.0652-0.00054 1.5977 0.002 1.9425-0.006 4.2023-0.10508 5.2773 1.9512h0.11914c-0.005-2.07-0.01-4.139-0.0137-6.209-0.04 0-0.0804-0.002-0.11914-0.002zm15.633 0.18164c-3.7088-0.01-7.4189 0.0176-11.129 0.0801v0.12891c1.9475 1.365 2.3291 3.6513 2.3379 5.8926-0.0412 5.3688-0.0825 10.738-0.125 16.105 0.008 2.2438 0.29102 4.7784-1.6465 6.0859v0.12891c5.7338 0.01 11.464 0.10726 17.191 0.29101 0.72125-2.385 1.4435-4.7711 2.166-7.1523-1.7388 1.3362-3.926 2.7876-6.1035 2.7051-1.4262-0.055-3.0054 0.0561-4.2754-0.62891-0.0212-5.7638-0.0393-11.529-0.0605-17.293-0.006-2.2838-0.29172-4.9398 1.6445-6.2148v-0.12891zm21.391 6.5977h0.0391c0.95875 3.0625 1.9202 6.1278 2.8789 9.1953-1.7912-0.0588-3.5838-0.11109-5.375-0.15234 0.81875-3.0175 1.6383-6.0305 2.457-9.043zm-80.473 25.914c-2.4312 0-4.9038 0.48461-6.9375 1.9434-1.835 1.3362-2.9492 3.5643-2.9492 5.873 0 9.0725 12.16 8.06 12.16 13 0 2.2688-2.4328 2.875-4.2266 2.875-2.8712 0-6.1393-1.2957-8.373-3.1582l1.3145 5.8301c2.4725 0.97125 5.1051 1.459 7.7363 1.459 2.8312 0 5.3838-0.36297 7.7363-2.1055 2.1138-1.58 3.1895-3.9293 3.1895-6.5606 0-2.5938-1.0355-4.414-2.9492-6.1152-1.5962-1.4175-3.389-2.1878-5.3027-3.0391-1.4762-0.64749-3.7891-1.4169-3.7891-3.3594 0-1.9038 1.9138-2.5938 3.4688-2.5938 1.9925 0 3.948 0.80859 5.623 1.9023v-4.7363c-2.0738-0.81-4.4662-1.2148-6.7012-1.2148zm92.59 0.44336c-0.43875 0.20375-1.0758 0.20313-1.6758 0.20313h-13.957v0.12109c1.9525 1.2162 1.6758 3.5246 1.6758 5.6309v15.146c0 2.1062 0.27672 4.3739-1.6758 5.6289v0.12305h17.666l1.5937-6.1172h-0.19726c-1.5162 1.8638-3.5898 2.2285-5.8223 2.2285-1.3962 0-2.8725-0.0799-4.1875-0.60743v-7.6152h1.3145c1.4762 0 3.3116-0.16102 3.8691 1.459h0.19922v-5.6699h-0.19922c-0.35875 0.16125-0.91711 0.20117-1.4746 0.20117h-3.709v-6.5605h1.2774c1.9538 0 4.2265-0.20133 5.3027 1.7012h0.1211v-5.873h-0.1211zm-81.227 0.082-1.5566 6.2363 0.28125-0.20312c1.515-1.0525 2.6702-1.498 4.5039-1.498 0.71875 0 1.3166 0.00086 1.9941 0.16211v16.281c0 2.1062 0.27992 4.4149-1.6738 5.6699v0.12109h10.807v-0.12109c-1.715-1.6188-1.7559-3.4425-1.7559-5.75v-16.201c0.67875-0.20125 1.3177-0.24414 2.0352-0.24414 1.4362 0 2.672 0.40695 3.2695 1.7832l1.3555-6.1172h-18.504l-0.75586-0.11914zm44.053 0-1.5566 6.2363 0.2793-0.20312c1.515-1.0525 2.6709-1.498 4.5059-1.498 0.7175 0 1.3147 0.00086 1.9922 0.16211v16.281c0 2.1062 0.27992 4.4149-1.6738 5.6699v0.12109h10.807v-0.12109c-1.715-1.6188-1.7539-3.4425-1.7539-5.75v-16.201c0.6775-0.20125 1.3157-0.24414 2.0332-0.24414 1.435 0 2.672 0.40695 3.2695 1.7832l1.3574-6.1172h-18.504l-0.75586-0.11914zm-19.449 0.1211v0.12109c0.79751 0.52625 1.5156 1.2571 1.5156 2.3496 0 0.85125-0.6382 2.4302-0.87695 3.2402l-5.5039 16.16c-0.71625 2.0662-1.237 3.2388-2.752 4.6562v0.12305h8.1758v-0.12305c-0.7175-0.6075-1.4375-1.1313-1.4375-2.2676 0-0.85 0.43875-2.106 0.71875-2.916l0.95703-2.7539h7.8965l1.3145 3.9297c0.24 0.6475 0.31836 0.85031 0.31836 1.5391 0 1.295-0.71657 1.8612-1.6328 2.4688v0.12305h12.043v-0.041-0.082c-2.2725-2.1462-2.4734-3.0787-3.4297-5.6699l-7.5371-20.857h-9.7695zm4.5859 6.8457h0.0391l2.752 7.9785h-5.4238l2.6328-7.9785z" transform="matrix(.8 0 0 -.8 212.99 418.57)" fill="#006a4d"/></g></g></svg>
